<svg width="512" height="139" viewBox="0 0 512 139" fill="none" xmlns="http://www.w3.org/2000/svg">
<path d="M98.696 59.312H55.636C55.1021 59.3125 54.5903 59.5249 54.2128 59.9025C53.8354 60.2801 53.6233 60.7921 53.623 61.326V82.379C53.623 83.49 54.525 84.394 55.635 84.394H72.434V110.551C72.434 110.551 68.662 111.837 58.234 111.837C45.931 111.837 28.744 107.341 28.744 69.549C28.744 31.749 46.641 26.776 63.442 26.776C77.985 26.776 84.251 29.336 88.237 30.57C89.49 30.954 90.649 29.707 90.649 28.595L95.452 8.253C95.452 7.733 95.276 7.107 94.683 6.682C93.064 5.527 83.187 0 58.233 0C29.488 0 0 12.23 0 71.023C0 129.818 33.76 138.579 62.21 138.579C85.765 138.579 100.054 128.513 100.054 128.513C100.644 128.188 100.707 127.365 100.707 126.987V61.326C100.707 60.216 99.806 59.312 98.696 59.312ZM320.497 7.359C320.497 6.239 319.609 5.335 318.498 5.335H294.252C293.987 5.33605 293.725 5.38923 293.481 5.49152C293.237 5.5938 293.015 5.74318 292.829 5.93113C292.642 6.11907 292.495 6.3419 292.394 6.5869C292.294 6.83189 292.243 7.09425 292.244 7.359L292.25 54.215H254.458V7.36C254.458 6.24 253.566 5.336 252.457 5.336H228.21C227.676 5.33891 227.165 5.55376 226.789 5.9333C226.414 6.31285 226.204 6.82602 226.207 7.36V134.232C226.207 135.352 227.107 136.262 228.21 136.262H252.455C253.564 136.262 254.455 135.352 254.455 134.232V79.964H292.248L292.182 134.231C292.182 135.351 293.082 136.261 294.19 136.261H318.494C319.604 136.261 320.492 135.351 320.494 134.231L320.497 7.359ZM144.37 24.322C144.37 15.592 137.37 8.536 128.735 8.536C120.108 8.536 113.103 15.591 113.103 24.322C113.103 33.042 120.108 40.117 128.735 40.117C137.37 40.117 144.37 33.042 144.37 24.322ZM142.446 107.534V48.97C142.448 48.4361 142.237 47.9234 141.861 47.5445C141.485 47.1656 140.974 46.9514 140.44 46.949H116.271C115.162 46.949 114.171 48.093 114.171 49.205V133.11C114.171 135.576 115.707 136.309 117.696 136.309H139.471C141.861 136.309 142.446 135.136 142.446 133.07V107.534ZM413.162 46.95H389.102C387.998 46.95 387.1 47.859 387.1 48.978V111.188C387.1 111.188 380.988 115.66 372.312 115.66C363.636 115.66 361.335 111.723 361.335 103.229V48.979C361.335 47.859 360.438 46.949 359.334 46.949H334.915C333.813 46.949 332.91 47.859 332.91 48.979V107.337C332.91 132.567 346.973 138.74 366.318 138.74C382.188 138.74 394.983 129.973 394.983 129.973C394.983 129.973 395.593 134.593 395.868 135.141C396.144 135.688 396.862 136.239 397.638 136.239L413.173 136.171C414.275 136.171 415.178 135.26 415.178 134.146L415.17 48.978C415.172 48.443 414.962 47.9289 414.585 47.5487C414.209 47.1685 413.697 46.9532 413.162 46.95ZM468.597 115.708C460.252 115.454 454.591 111.667 454.591 111.667V71.488C454.591 71.488 460.176 68.065 467.027 67.453C475.691 66.677 484.04 69.294 484.04 89.963C484.04 111.758 480.272 116.06 468.597 115.708ZM478.087 44.224C464.422 44.224 455.127 50.321 455.127 50.321V7.359C455.129 7.09471 455.079 6.83264 454.979 6.58781C454.879 6.34298 454.733 6.12019 454.547 5.93219C454.361 5.74419 454.14 5.59468 453.896 5.4922C453.653 5.38973 453.391 5.33631 453.127 5.335H428.812C428.547 5.33618 428.286 5.38948 428.042 5.49186C427.798 5.59424 427.577 5.74369 427.391 5.93166C427.204 6.11963 427.057 6.34244 426.957 6.58736C426.857 6.83227 426.807 7.09448 426.808 7.359V134.231C426.808 135.351 427.706 136.261 428.815 136.261H445.685C446.445 136.261 447.02 135.871 447.445 135.184C447.864 134.502 448.469 129.334 448.469 129.334C448.469 129.334 458.411 138.756 477.232 138.756C499.328 138.756 512 127.548 512 88.441C512 49.334 491.762 44.224 478.087 44.224ZM212.229 46.73H194.042L194.014 22.703C194.014 21.794 193.546 21.339 192.494 21.339H167.71C166.746 21.339 166.229 21.763 166.229 22.689V47.519C166.229 47.519 153.809 50.517 152.969 50.759C152.55 50.8801 152.182 51.1343 151.92 51.4832C151.658 51.8321 151.516 52.2567 151.517 52.693V68.296C151.517 69.418 152.413 70.323 153.522 70.323H166.229V107.859C166.229 135.739 185.785 138.478 198.982 138.478C205.012 138.478 212.225 136.541 213.416 136.102C214.136 135.837 214.554 135.092 214.554 134.282L214.574 117.118C214.574 115.999 213.629 115.093 212.564 115.093C211.504 115.093 208.794 115.524 206.002 115.524C197.069 115.524 194.042 111.37 194.042 105.994L194.041 70.324H212.229C212.494 70.323 212.756 70.2696 213.001 70.1671C213.245 70.0645 213.467 69.9147 213.653 69.7263C213.839 69.5379 213.987 69.3146 214.086 69.0692C214.186 68.8237 214.237 68.561 214.235 68.296V48.753C214.235 47.633 213.338 46.73 212.229 46.73Z" fill="#151013"/>
</svg>
