<svg width="77" height="77" viewBox="0 0 77 77" fill="none" xmlns="http://www.w3.org/2000/svg">
<path d="M76.6263 63.2698C76.8266 63.2698 76.9894 63.4332 76.9839 63.6333C76.7947 70.5233 71.2441 76.0727 64.3554 76.2618C64.1553 76.2673 63.9919 76.1045 63.9919 75.9042V63.995C63.9919 63.5945 64.3166 63.2698 64.7171 63.2698H76.6263Z" fill="black"/>
<path fill-rule="evenodd" clip-rule="evenodd" d="M25.718 8.49891C34.5509 7.12171 43.3597 12.5997 45.8911 21.2265C47.3767 26.2893 46.772 31.5003 46.1813 36.5908C46.1526 36.8381 46.124 37.0851 46.0956 37.3318C45.4777 42.7011 46.8621 45.0829 52.6891 44.9317C58.0456 44.7935 63.4196 45.1742 68.785 45.5543C69.9818 45.6391 71.1781 45.7238 72.3737 45.8028C75.3664 46.0001 76.3157 44.8841 76.7032 41.8859C79.3342 21.5202 63.1745 2.03483 41.8638 0.144527C30.719 -0.84436 20.2438 3.30625 12.6469 10.606C4.94422 17.8117 0.240072 28.0657 0.644783 39.2596C1.41718 60.64 20.0301 77.7973 40.5056 76.2358C43.52 76.0057 44.6841 75.1162 44.6437 72.1172C44.6274 70.9191 44.6054 69.72 44.5834 68.5204C44.4846 63.1425 44.3857 57.7559 44.804 52.4141C45.2599 46.6029 42.9539 45.0958 37.5597 45.4318C37.3118 45.4472 37.0636 45.4629 36.8152 45.4786C31.7007 45.8021 26.4652 46.1332 21.487 44.3847C13.0046 41.4053 7.99513 32.3219 9.83272 23.5732C10.6513 19.6732 12.6211 16.2739 15.3008 13.7118L15.3027 13.7139C15.3534 13.6641 15.4043 13.6147 15.4556 13.5655C15.4987 13.5251 15.5421 13.485 15.5856 13.4451L15.584 13.4434C18.2828 10.9015 21.7805 9.11228 25.718 8.49891Z" fill="black"/>
</svg>
