<svg width="35" height="34" viewBox="0 0 35 34" fill="none" xmlns="http://www.w3.org/2000/svg">
<circle cx="17.4045" cy="17" r="15.705" stroke="black" stroke-width="2"/>
<path d="M21.2982 14.9515V16.1245H23.9915C24.9907 16.1245 25.2296 16.0158 25.2296 15.5814C25.2296 15.1253 25.0124 14.9515 23.9915 14.9515H21.2982ZM18.5614 12.193H24.3174C27.0759 12.193 28.3357 13.4745 28.3357 15.5597C28.3357 17.6449 26.8804 18.883 24.3174 18.883H21.2982V22.0759H18.5614V12.193Z" fill="black"/>
<path d="M10.6289 14.9515V16.1245H13.3222C14.3214 16.1245 14.5603 16.0158 14.5603 15.5814C14.5603 15.1253 14.3431 14.9515 13.3222 14.9515H10.6289ZM7.89209 12.193H13.648C16.4066 12.193 17.6664 13.4745 17.6664 15.5597C17.6664 16.7543 17.1885 17.6666 16.298 18.2313C17.4274 19.2739 17.9053 22.0759 17.9053 22.0759H14.9296C14.9296 22.0759 14.5169 18.883 12.8878 18.883H10.6289V22.0759H7.89209V12.193Z" fill="black"/>
</svg>
